<?xml version="1.0" encoding="iso-8859-1"?>
<!-- Generator: Adobe Illustrator 18.1.1, SVG Export Plug-In . SVG Version: 6.00 Build 0)  -->
<svg version="1.1" id="Capa_1" xmlns="http://www.w3.org/2000/svg" xmlns:xlink="http://www.w3.org/1999/xlink" x="0px" y="0px"
	 viewBox="0 0 16 16" style="enable-background:new 0 0 16 16;" xml:space="preserve">
<g>
	<g>
		<g>
			<path style="fill:#010002;" d="M0.006,0v3.068C7.128,3.068,12.924,8.87,12.924,16H16C16,7.18,8.824,0,0.006,0z"/>
			<path style="fill:#010002;" d="M0.002,5.435v3.067c1.997,0,3.874,0.781,5.288,2.196C6.702,12.109,7.482,13.995,7.482,16h3.081
				C10.563,10.174,5.824,5.435,0.002,5.435z"/>
			<path style="fill:#010002;" d="M2.13,11.732c-1.175,0-2.13,0.957-2.13,2.125c0,1.175,0.955,2.123,2.13,2.123
				c1.179,0,2.133-0.948,2.133-2.123C4.262,12.691,3.309,11.732,2.13,11.732z"/>
		</g>
	</g>
</g>
<g>
</g>
<g>
</g>
<g>
</g>
<g>
</g>
<g>
</g>
<g>
</g>
<g>
</g>
<g>
</g>
<g>
</g>
<g>
</g>
<g>
</g>
<g>
</g>
<g>
</g>
<g>
</g>
<g>
</g>
</svg>
